<?xml version="1.0" encoding="UTF-8"?>
<svg width="36px" height="38px" viewBox="0 0 36 38" version="1.1" xmlns="http://www.w3.org/2000/svg" xmlns:xlink="http://www.w3.org/1999/xlink">
    <title>base-calendar copy</title>
    <g id="Page-1" stroke="none" stroke-width="1" fill="none" fill-rule="evenodd">
        <g id="base-calendar-copy">
            <rect id="Rectangle" fill="#888888" x="8" y="0" width="3" height="7" rx="1"></rect>
            <rect id="Rectangle-Copy" fill="#888888" x="25" y="0" width="3" height="7" rx="1"></rect>
            <rect id="Rectangle" stroke="#888888" stroke-width="2" x="1" y="3" width="34" height="34" rx="8"></rect>
            <rect id="Rectangle" fill="#888888" x="3" y="3" width="30" height="4" rx="1.5"></rect>
            <rect id="Rectangle" fill="#888888" x="5" y="9" width="5" height="5" rx="1"></rect>
            <rect id="Rectangle-Copy-4" fill="#888888" x="5" y="17.5" width="5" height="5" rx="1"></rect>
            <rect id="Rectangle-Copy-7" fill="#888888" x="5" y="26" width="5" height="5" rx="1"></rect>
            <rect id="Rectangle-Copy-2" fill="#888888" x="15.5" y="9" width="5" height="5" rx="1"></rect>
            <rect id="Rectangle-Copy-5" fill="#888888" x="15.5" y="17.5" width="5" height="5" rx="1"></rect>
            <rect id="Rectangle-Copy-8" fill="#888888" x="15.5" y="26" width="5" height="5" rx="1"></rect>
            <rect id="Rectangle-Copy-3" fill="#888888" x="26" y="9" width="5" height="5" rx="1"></rect>
            <rect id="Rectangle-Copy-6" fill="#888888" x="26" y="17.5" width="5" height="5" rx="1"></rect>
            <rect id="Rectangle-Copy-9" fill="#888888" x="26" y="26" width="5" height="5" rx="1"></rect>
        </g>
    </g>
</svg>